<mxfile host="app.diagrams.net" modified="2023-05-24T22:53:50.306Z" agent="Mozilla/5.0 (Windows NT 10.0; Win64; x64) AppleWebKit/537.36 (KHTML, like Gecko) Chrome/113.0.0.0 Safari/537.36" version="21.3.3" etag="Gmd_wJH6wkSqLXemL4li" type="google">
  <diagram name="PÃ¡gina-1" id="GPFiZBU1JPOUgWZgJ-VH">
    <mxGraphModel>
      <root>
        <mxCell id="0" />
        <mxCell id="1" parent="0" />
      </root>
    </mxGraphModel>
  </diagram>
</mxfile>
